<mxfile host="app.diagrams.net" agent="Mozilla/5.0 (Windows NT 10.0; Win64; x64) AppleWebKit/537.36 (KHTML, like Gecko) Chrome/126.0.0.0 Safari/537.36" version="24.7.6" pages="2">
  <diagram id="fDcT390zfdcYj6RnFhE0" name="Arquitectura1">
    <mxGraphModel dx="3447" dy="1400" grid="1" gridSize="10" guides="1" tooltips="1" connect="1" arrows="1" fold="1" page="1" pageScale="1" pageWidth="850" pageHeight="1100" math="0" shadow="0">
      <root>
        <mxCell id="0" />
        <mxCell id="1" parent="0" />
        <mxCell id="Fg_R7rMF1QJfMFUxLV-t-1" value="AWS Cloud" style="points=[[0,0],[0.25,0],[0.5,0],[0.75,0],[1,0],[1,0.25],[1,0.5],[1,0.75],[1,1],[0.75,1],[0.5,1],[0.25,1],[0,1],[0,0.75],[0,0.5],[0,0.25]];outlineConnect=0;gradientColor=none;html=1;whiteSpace=wrap;fontSize=12;fontStyle=0;shape=mxgraph.aws4.group;grIcon=mxgraph.aws4.group_aws_cloud_alt;strokeColor=#232F3E;fillColor=none;verticalAlign=top;align=left;spacingLeft=30;fontColor=#232F3E;dashed=0;labelBackgroundColor=#ffffff;container=1;pointerEvents=0;collapsible=0;recursiveResize=0;" parent="1" vertex="1">
          <mxGeometry x="570" y="55" width="1070" height="990" as="geometry" />
        </mxCell>
        <mxCell id="Fg_R7rMF1QJfMFUxLV-t-11" value="&amp;nbsp;AWS Organization" style="points=[[0,0],[0.25,0],[0.5,0],[0.75,0],[1,0],[1,0.25],[1,0.5],[1,0.75],[1,1],[0.75,1],[0.5,1],[0.25,1],[0,1],[0,0.75],[0,0.5],[0,0.25]];outlineConnect=0;gradientColor=none;html=1;whiteSpace=wrap;fontSize=12;fontStyle=0;container=1;pointerEvents=0;collapsible=0;recursiveResize=0;shape=mxgraph.aws4.group;grIcon=;strokeColor=#CD2264;fillColor=none;verticalAlign=top;align=left;spacingLeft=30;fontColor=#CD2264;dashed=0;" parent="Fg_R7rMF1QJfMFUxLV-t-1" vertex="1">
          <mxGeometry x="60" y="35" width="980" height="905" as="geometry" />
        </mxCell>
        <mxCell id="Fg_R7rMF1QJfMFUxLV-t-16" value="" style="sketch=0;points=[[0,0,0],[0.25,0,0],[0.5,0,0],[0.75,0,0],[1,0,0],[0,1,0],[0.25,1,0],[0.5,1,0],[0.75,1,0],[1,1,0],[0,0.25,0],[0,0.5,0],[0,0.75,0],[1,0.25,0],[1,0.5,0],[1,0.75,0]];points=[[0,0,0],[0.25,0,0],[0.5,0,0],[0.75,0,0],[1,0,0],[0,1,0],[0.25,1,0],[0.5,1,0],[0.75,1,0],[1,1,0],[0,0.25,0],[0,0.5,0],[0,0.75,0],[1,0.25,0],[1,0.5,0],[1,0.75,0]];outlineConnect=0;fontColor=#232F3E;fillColor=#CD2264;strokeColor=#ffffff;dashed=0;verticalLabelPosition=bottom;verticalAlign=top;align=center;html=1;fontSize=12;fontStyle=0;aspect=fixed;shape=mxgraph.aws4.resourceIcon;resIcon=mxgraph.aws4.organizations;" parent="Fg_R7rMF1QJfMFUxLV-t-11" vertex="1">
          <mxGeometry width="30" height="30" as="geometry" />
        </mxCell>
        <mxCell id="6dxpCICscCtcMZDKGbw2-8" style="edgeStyle=orthogonalEdgeStyle;rounded=0;orthogonalLoop=1;jettySize=auto;html=1;" parent="Fg_R7rMF1QJfMFUxLV-t-11" source="Fg_R7rMF1QJfMFUxLV-t-3" target="Fg_R7rMF1QJfMFUxLV-t-10" edge="1">
          <mxGeometry relative="1" as="geometry" />
        </mxCell>
        <mxCell id="Fg_R7rMF1QJfMFUxLV-t-3" value="Managament Account" style="points=[[0,0],[0.25,0],[0.5,0],[0.75,0],[1,0],[1,0.25],[1,0.5],[1,0.75],[1,1],[0.75,1],[0.5,1],[0.25,1],[0,1],[0,0.75],[0,0.5],[0,0.25]];outlineConnect=0;gradientColor=none;html=1;whiteSpace=wrap;fontSize=12;fontStyle=0;container=1;pointerEvents=0;collapsible=0;recursiveResize=0;shape=mxgraph.aws4.group;grIcon=mxgraph.aws4.organizations_management_account2;strokeColor=#CD2264;fillColor=none;verticalAlign=top;align=left;spacingLeft=30;fontColor=#CD2264;dashed=0;" parent="Fg_R7rMF1QJfMFUxLV-t-11" vertex="1">
          <mxGeometry x="100" y="40" width="840" height="505" as="geometry" />
        </mxCell>
        <mxCell id="6dxpCICscCtcMZDKGbw2-19" style="edgeStyle=orthogonalEdgeStyle;rounded=0;orthogonalLoop=1;jettySize=auto;html=1;" parent="Fg_R7rMF1QJfMFUxLV-t-3" source="Fg_R7rMF1QJfMFUxLV-t-28" edge="1">
          <mxGeometry relative="1" as="geometry">
            <mxPoint x="346.75" y="110" as="targetPoint" />
          </mxGeometry>
        </mxCell>
        <mxCell id="Fg_R7rMF1QJfMFUxLV-t-28" value="" style="sketch=0;points=[[0,0,0],[0.25,0,0],[0.5,0,0],[0.75,0,0],[1,0,0],[0,1,0],[0.25,1,0],[0.5,1,0],[0.75,1,0],[1,1,0],[0,0.25,0],[0,0.5,0],[0,0.75,0],[1,0.25,0],[1,0.5,0],[1,0.75,0]];outlineConnect=0;fontColor=#232F3E;fillColor=#DD344C;strokeColor=#ffffff;dashed=0;verticalLabelPosition=bottom;verticalAlign=top;align=center;html=1;fontSize=12;fontStyle=0;aspect=fixed;shape=mxgraph.aws4.resourceIcon;resIcon=mxgraph.aws4.single_sign_on;" parent="Fg_R7rMF1QJfMFUxLV-t-3" vertex="1">
          <mxGeometry x="116.03" y="80" width="63" height="63" as="geometry" />
        </mxCell>
        <mxCell id="6dxpCICscCtcMZDKGbw2-1" value="IAM Identity Center" style="text;html=1;align=center;verticalAlign=middle;resizable=0;points=[];autosize=1;strokeColor=none;fillColor=none;" parent="Fg_R7rMF1QJfMFUxLV-t-3" vertex="1">
          <mxGeometry x="93.25" y="143" width="130" height="30" as="geometry" />
        </mxCell>
        <mxCell id="6dxpCICscCtcMZDKGbw2-18" value="" style="sketch=0;outlineConnect=0;fontColor=#232F3E;gradientColor=none;fillColor=#DD344C;strokeColor=none;dashed=0;verticalLabelPosition=bottom;verticalAlign=top;align=center;html=1;fontSize=12;fontStyle=0;aspect=fixed;pointerEvents=1;shape=mxgraph.aws4.permissions;" parent="Fg_R7rMF1QJfMFUxLV-t-3" vertex="1">
          <mxGeometry x="348.75" y="80" width="47.69" height="60" as="geometry" />
        </mxCell>
        <mxCell id="6dxpCICscCtcMZDKGbw2-20" value="AWS SSO Permission Set" style="text;html=1;align=center;verticalAlign=middle;resizable=0;points=[];autosize=1;strokeColor=none;fillColor=none;" parent="Fg_R7rMF1QJfMFUxLV-t-3" vertex="1">
          <mxGeometry x="292.59" y="143" width="160" height="30" as="geometry" />
        </mxCell>
        <mxCell id="6dxpCICscCtcMZDKGbw2-22" value="Create Permission Set: Developer Acess" style="text;html=1;align=center;verticalAlign=middle;resizable=0;points=[];autosize=1;strokeColor=none;fillColor=none;" parent="Fg_R7rMF1QJfMFUxLV-t-3" vertex="1">
          <mxGeometry x="452.59" y="50" width="240" height="30" as="geometry" />
        </mxCell>
        <mxCell id="6dxpCICscCtcMZDKGbw2-24" value="" style="shape=image;html=4;verticalAlign=top;verticalLabelPosition=bottom;labelBackgroundColor=#ffffff;imageAspect=0;aspect=fixed;image=https://cdn0.iconfinder.com/data/icons/phosphor-fill-vol-3/256/number-circle-four-fill-128.png" parent="Fg_R7rMF1QJfMFUxLV-t-3" vertex="1">
          <mxGeometry x="422.59" y="50" width="30" height="30" as="geometry" />
        </mxCell>
        <mxCell id="6dxpCICscCtcMZDKGbw2-25" value="&lt;span style=&quot;background-color: initial;&quot;&gt;Assing Permission Set to an Account DevLab&lt;/span&gt;" style="text;html=1;align=center;verticalAlign=middle;resizable=0;points=[];autosize=1;strokeColor=none;fillColor=none;" parent="Fg_R7rMF1QJfMFUxLV-t-3" vertex="1">
          <mxGeometry x="486.75" y="140" width="260" height="30" as="geometry" />
        </mxCell>
        <mxCell id="6dxpCICscCtcMZDKGbw2-26" value="" style="shape=image;html=5;verticalAlign=top;verticalLabelPosition=bottom;labelBackgroundColor=#ffffff;imageAspect=0;aspect=fixed;image=https://cdn0.iconfinder.com/data/icons/phosphor-fill-vol-3/256/number-circle-five-fill-128.png" parent="Fg_R7rMF1QJfMFUxLV-t-3" vertex="1">
          <mxGeometry x="422.59" y="95" width="30" height="30" as="geometry" />
        </mxCell>
        <mxCell id="6dxpCICscCtcMZDKGbw2-27" value="Create group adminEC2 and user usr_maria_alta" style="text;html=1;align=center;verticalAlign=middle;resizable=0;points=[];autosize=1;strokeColor=none;fillColor=none;" parent="Fg_R7rMF1QJfMFUxLV-t-3" vertex="1">
          <mxGeometry x="452.59" y="95" width="290" height="30" as="geometry" />
        </mxCell>
        <mxCell id="6dxpCICscCtcMZDKGbw2-31" value="" style="shape=image;html=6;verticalAlign=top;verticalLabelPosition=bottom;labelBackgroundColor=#ffffff;imageAspect=0;aspect=fixed;image=https://cdn0.iconfinder.com/data/icons/phosphor-fill-vol-3/256/number-circle-six-fill-128.png" parent="Fg_R7rMF1QJfMFUxLV-t-3" vertex="1">
          <mxGeometry x="452.59000000000003" y="140" width="30" height="30" as="geometry" />
        </mxCell>
        <mxCell id="6dxpCICscCtcMZDKGbw2-42" style="edgeStyle=orthogonalEdgeStyle;rounded=0;orthogonalLoop=1;jettySize=auto;html=1;" parent="Fg_R7rMF1QJfMFUxLV-t-3" source="6dxpCICscCtcMZDKGbw2-40" target="Fg_R7rMF1QJfMFUxLV-t-20" edge="1">
          <mxGeometry relative="1" as="geometry" />
        </mxCell>
        <mxCell id="6dxpCICscCtcMZDKGbw2-40" value="" style="sketch=0;points=[[0,0,0],[0.25,0,0],[0.5,0,0],[0.75,0,0],[1,0,0],[0,1,0],[0.25,1,0],[0.5,1,0],[0.75,1,0],[1,1,0],[0,0.25,0],[0,0.5,0],[0,0.75,0],[1,0.25,0],[1,0.5,0],[1,0.75,0]];outlineConnect=0;fontColor=#232F3E;fillColor=#DD344C;strokeColor=#ffffff;dashed=0;verticalLabelPosition=bottom;verticalAlign=top;align=center;html=1;fontSize=12;fontStyle=0;aspect=fixed;shape=mxgraph.aws4.resourceIcon;resIcon=mxgraph.aws4.identity_and_access_management;" parent="Fg_R7rMF1QJfMFUxLV-t-3" vertex="1">
          <mxGeometry x="115.03" y="345" width="64" height="64" as="geometry" />
        </mxCell>
        <mxCell id="6dxpCICscCtcMZDKGbw2-41" value="IAM" style="text;html=1;align=center;verticalAlign=middle;resizable=0;points=[];autosize=1;strokeColor=none;fillColor=none;" parent="Fg_R7rMF1QJfMFUxLV-t-3" vertex="1">
          <mxGeometry x="127.03" y="407.5" width="40" height="30" as="geometry" />
        </mxCell>
        <mxCell id="Fg_R7rMF1QJfMFUxLV-t-20" value="" style="sketch=0;outlineConnect=0;fontColor=#232F3E;gradientColor=none;fillColor=#DD344C;strokeColor=none;dashed=0;verticalLabelPosition=bottom;verticalAlign=top;align=center;html=1;fontSize=12;fontStyle=0;aspect=fixed;pointerEvents=1;shape=mxgraph.aws4.role;" parent="Fg_R7rMF1QJfMFUxLV-t-3" vertex="1">
          <mxGeometry x="340.25" y="360" width="64.71" height="36.5" as="geometry" />
        </mxCell>
        <mxCell id="6dxpCICscCtcMZDKGbw2-43" value="Role_ReadSecretRole&amp;nbsp;" style="text;html=1;align=center;verticalAlign=middle;resizable=0;points=[];autosize=1;strokeColor=none;fillColor=none;" parent="Fg_R7rMF1QJfMFUxLV-t-3" vertex="1">
          <mxGeometry x="292.59" y="407.5" width="150" height="30" as="geometry" />
        </mxCell>
        <mxCell id="6dxpCICscCtcMZDKGbw2-44" value="" style="shape=image;html=7;verticalAlign=top;verticalLabelPosition=bottom;labelBackgroundColor=#ffffff;imageAspect=0;aspect=fixed;image=https://cdn0.iconfinder.com/data/icons/phosphor-fill-vol-3/256/number-circle-seven-fill-128.png" parent="Fg_R7rMF1QJfMFUxLV-t-3" vertex="1">
          <mxGeometry x="412.59000000000003" y="205" width="30" height="30" as="geometry" />
        </mxCell>
        <mxCell id="6dxpCICscCtcMZDKGbw2-62" style="edgeStyle=orthogonalEdgeStyle;rounded=0;orthogonalLoop=1;jettySize=auto;html=1;" parent="Fg_R7rMF1QJfMFUxLV-t-3" source="Fg_R7rMF1QJfMFUxLV-t-25" target="6dxpCICscCtcMZDKGbw2-57" edge="1">
          <mxGeometry relative="1" as="geometry" />
        </mxCell>
        <mxCell id="Fg_R7rMF1QJfMFUxLV-t-25" value="" style="sketch=0;points=[[0,0,0],[0.25,0,0],[0.5,0,0],[0.75,0,0],[1,0,0],[0,1,0],[0.25,1,0],[0.5,1,0],[0.75,1,0],[1,1,0],[0,0.25,0],[0,0.5,0],[0,0.75,0],[1,0.25,0],[1,0.5,0],[1,0.75,0]];outlineConnect=0;fontColor=#232F3E;fillColor=#DD344C;strokeColor=#ffffff;dashed=0;verticalLabelPosition=bottom;verticalAlign=top;align=center;html=1;fontSize=12;fontStyle=0;aspect=fixed;shape=mxgraph.aws4.resourceIcon;resIcon=mxgraph.aws4.secrets_manager;" parent="Fg_R7rMF1QJfMFUxLV-t-3" vertex="1">
          <mxGeometry x="115.03" y="215" width="63.5" height="63.5" as="geometry" />
        </mxCell>
        <mxCell id="6dxpCICscCtcMZDKGbw2-47" value="Secret Manager" style="text;html=1;align=center;verticalAlign=middle;resizable=0;points=[];autosize=1;strokeColor=none;fillColor=none;" parent="Fg_R7rMF1QJfMFUxLV-t-3" vertex="1">
          <mxGeometry x="93.25" y="277.5" width="110" height="30" as="geometry" />
        </mxCell>
        <mxCell id="6dxpCICscCtcMZDKGbw2-57" value="" style="sketch=0;outlineConnect=0;fontColor=#232F3E;gradientColor=none;fillColor=#DD344C;strokeColor=none;dashed=0;verticalLabelPosition=bottom;verticalAlign=top;align=center;html=1;fontSize=12;fontStyle=0;aspect=fixed;pointerEvents=1;shape=mxgraph.aws4.data_encryption_key;" parent="Fg_R7rMF1QJfMFUxLV-t-3" vertex="1">
          <mxGeometry x="346.47" y="213.88" width="52.26" height="65.75" as="geometry" />
        </mxCell>
        <mxCell id="6dxpCICscCtcMZDKGbw2-63" value="Create secret KeysUserMaria" style="text;html=1;align=center;verticalAlign=middle;resizable=0;points=[];autosize=1;strokeColor=none;fillColor=none;" parent="Fg_R7rMF1QJfMFUxLV-t-3" vertex="1">
          <mxGeometry x="442.59000000000003" y="243.88" width="180" height="30" as="geometry" />
        </mxCell>
        <mxCell id="6dxpCICscCtcMZDKGbw2-64" value="" style="shape=image;html=0;verticalAlign=top;verticalLabelPosition=bottom;labelBackgroundColor=#ffffff;imageAspect=0;aspect=fixed;image=https://cdn0.iconfinder.com/data/icons/phosphor-fill-vol-3/256/number-circle-zero-fill-128.png;movable=1;resizable=1;rotatable=1;deletable=1;editable=1;locked=0;connectable=1;" parent="Fg_R7rMF1QJfMFUxLV-t-3" vertex="1">
          <mxGeometry x="452.59" y="396.5" width="30" height="30" as="geometry" />
        </mxCell>
        <mxCell id="6dxpCICscCtcMZDKGbw2-65" value="" style="shape=image;html=8;verticalAlign=top;verticalLabelPosition=bottom;labelBackgroundColor=#ffffff;imageAspect=0;aspect=fixed;image=https://cdn0.iconfinder.com/data/icons/phosphor-fill-vol-3/256/number-circle-eight-fill-128.png" parent="Fg_R7rMF1QJfMFUxLV-t-3" vertex="1">
          <mxGeometry x="412.59" y="243.88" width="30" height="30" as="geometry" />
        </mxCell>
        <mxCell id="6dxpCICscCtcMZDKGbw2-66" value="" style="shape=image;html=9;verticalAlign=top;verticalLabelPosition=bottom;labelBackgroundColor=#ffffff;imageAspect=0;aspect=fixed;image=https://cdn0.iconfinder.com/data/icons/phosphor-fill-vol-3/256/number-circle-nine-fill-128.png" parent="Fg_R7rMF1QJfMFUxLV-t-3" vertex="1">
          <mxGeometry x="432.59000000000003" y="358.75" width="30" height="30" as="geometry" />
        </mxCell>
        <mxCell id="6dxpCICscCtcMZDKGbw2-67" value="Create Role ReadSecretRole" style="text;html=1;align=center;verticalAlign=middle;resizable=0;points=[];autosize=1;strokeColor=none;fillColor=none;" parent="Fg_R7rMF1QJfMFUxLV-t-3" vertex="1">
          <mxGeometry x="482.59" y="396.5" width="180" height="30" as="geometry" />
        </mxCell>
        <mxCell id="6dxpCICscCtcMZDKGbw2-68" value="Get Arn Role SSO for Permission Set" style="text;html=1;align=center;verticalAlign=middle;resizable=0;points=[];autosize=1;strokeColor=none;fillColor=none;" parent="Fg_R7rMF1QJfMFUxLV-t-3" vertex="1">
          <mxGeometry x="462.59000000000003" y="357.5" width="220" height="30" as="geometry" />
        </mxCell>
        <mxCell id="hSALlEVlb4BRuWAQIIw8-3" value="" style="shape=image;html=1;verticalAlign=top;verticalLabelPosition=bottom;labelBackgroundColor=#ffffff;imageAspect=0;aspect=fixed;image=https://cdn0.iconfinder.com/data/icons/phosphor-fill-vol-3/256/number-circle-one-fill-128.png;movable=1;resizable=1;rotatable=1;deletable=1;editable=1;locked=0;connectable=1;" vertex="1" parent="Fg_R7rMF1QJfMFUxLV-t-3">
          <mxGeometry x="432.59000000000003" y="396.5" width="30" height="30" as="geometry" />
        </mxCell>
        <mxCell id="hSALlEVlb4BRuWAQIIw8-4" value="Configuration Resorce Policy" style="text;html=1;align=center;verticalAlign=middle;resizable=0;points=[];autosize=1;strokeColor=none;fillColor=none;" vertex="1" parent="Fg_R7rMF1QJfMFUxLV-t-3">
          <mxGeometry x="462.59" y="279.63" width="180" height="30" as="geometry" />
        </mxCell>
        <mxCell id="hSALlEVlb4BRuWAQIIw8-6" value="" style="shape=image;html=1;verticalAlign=top;verticalLabelPosition=bottom;labelBackgroundColor=#ffffff;imageAspect=0;aspect=fixed;image=https://cdn0.iconfinder.com/data/icons/phosphor-fill-vol-3/256/number-circle-one-fill-128.png;movable=1;resizable=1;rotatable=1;deletable=1;editable=1;locked=0;connectable=1;" vertex="1" parent="Fg_R7rMF1QJfMFUxLV-t-3">
          <mxGeometry x="412.59000000000003" y="279.63" width="30" height="30" as="geometry" />
        </mxCell>
        <mxCell id="hSALlEVlb4BRuWAQIIw8-7" value="" style="shape=image;html=1;verticalAlign=top;verticalLabelPosition=bottom;labelBackgroundColor=#ffffff;imageAspect=0;aspect=fixed;image=https://cdn0.iconfinder.com/data/icons/phosphor-fill-vol-3/256/number-circle-one-fill-128.png;movable=1;resizable=1;rotatable=1;deletable=1;editable=1;locked=0;connectable=1;" vertex="1" parent="Fg_R7rMF1QJfMFUxLV-t-3">
          <mxGeometry x="432.59000000000003" y="279.63" width="30" height="30" as="geometry" />
        </mxCell>
        <mxCell id="hSALlEVlb4BRuWAQIIw8-8" style="edgeStyle=orthogonalEdgeStyle;rounded=0;orthogonalLoop=1;jettySize=auto;html=1;" edge="1" parent="Fg_R7rMF1QJfMFUxLV-t-3" source="hSALlEVlb4BRuWAQIIw8-9">
          <mxGeometry relative="1" as="geometry">
            <Array as="points">
              <mxPoint x="502.59000000000015" y="221" />
              <mxPoint x="502.59000000000015" y="221" />
            </Array>
            <mxPoint x="526.75" y="221" as="targetPoint" />
          </mxGeometry>
        </mxCell>
        <mxCell id="hSALlEVlb4BRuWAQIIw8-9" value="" style="sketch=0;outlineConnect=0;fontColor=#232F3E;gradientColor=none;fillColor=#232F3D;strokeColor=none;dashed=0;verticalLabelPosition=bottom;verticalAlign=top;align=center;html=1;fontSize=12;fontStyle=0;aspect=fixed;pointerEvents=1;shape=mxgraph.aws4.user;" vertex="1" parent="Fg_R7rMF1QJfMFUxLV-t-3">
          <mxGeometry x="452.59000000000003" y="201" width="38" height="38" as="geometry" />
        </mxCell>
        <mxCell id="hSALlEVlb4BRuWAQIIw8-10" value="" style="sketch=0;pointerEvents=1;shadow=0;dashed=0;html=1;strokeColor=none;fillColor=#434445;aspect=fixed;labelPosition=center;verticalLabelPosition=bottom;verticalAlign=top;align=center;outlineConnect=0;shape=mxgraph.vvd.web_browser;" vertex="1" parent="Fg_R7rMF1QJfMFUxLV-t-3">
          <mxGeometry x="525.51" y="210.74" width="34.16" height="24.26" as="geometry" />
        </mxCell>
        <mxCell id="hSALlEVlb4BRuWAQIIw8-11" value="Login to AWS SSO user&lt;div&gt;&amp;nbsp;Portal and get AccessKeys&lt;/div&gt;" style="text;html=1;align=center;verticalAlign=middle;resizable=0;points=[];autosize=1;strokeColor=none;fillColor=none;" vertex="1" parent="Fg_R7rMF1QJfMFUxLV-t-3">
          <mxGeometry x="559.6700000000001" y="202.87" width="170" height="40" as="geometry" />
        </mxCell>
        <mxCell id="6dxpCICscCtcMZDKGbw2-34" style="edgeStyle=orthogonalEdgeStyle;rounded=0;orthogonalLoop=1;jettySize=auto;html=1;" parent="Fg_R7rMF1QJfMFUxLV-t-11" source="Fg_R7rMF1QJfMFUxLV-t-10" target="Fg_R7rMF1QJfMFUxLV-t-3" edge="1">
          <mxGeometry relative="1" as="geometry">
            <Array as="points" />
          </mxGeometry>
        </mxCell>
        <mxCell id="Fg_R7rMF1QJfMFUxLV-t-10" value="AWS Account" style="points=[[0,0],[0.25,0],[0.5,0],[0.75,0],[1,0],[1,0.25],[1,0.5],[1,0.75],[1,1],[0.75,1],[0.5,1],[0.25,1],[0,1],[0,0.75],[0,0.5],[0,0.25]];outlineConnect=0;gradientColor=none;html=1;whiteSpace=wrap;fontSize=12;fontStyle=0;container=1;pointerEvents=0;collapsible=0;recursiveResize=0;shape=mxgraph.aws4.group;grIcon=mxgraph.aws4.group_account;strokeColor=#CD2264;fillColor=none;verticalAlign=top;align=left;spacingLeft=30;fontColor=#CD2264;dashed=0;" parent="Fg_R7rMF1QJfMFUxLV-t-11" vertex="1">
          <mxGeometry x="100" y="640" width="840" height="234" as="geometry" />
        </mxCell>
        <mxCell id="6dxpCICscCtcMZDKGbw2-2" value="" style="sketch=0;points=[[0,0,0],[0.25,0,0],[0.5,0,0],[0.75,0,0],[1,0,0],[0,1,0],[0.25,1,0],[0.5,1,0],[0.75,1,0],[1,1,0],[0,0.25,0],[0,0.5,0],[0,0.75,0],[1,0.25,0],[1,0.5,0],[1,0.75,0]];outlineConnect=0;fontColor=#232F3E;fillColor=#DD344C;strokeColor=#ffffff;dashed=0;verticalLabelPosition=bottom;verticalAlign=top;align=center;html=1;fontSize=12;fontStyle=0;aspect=fixed;shape=mxgraph.aws4.resourceIcon;resIcon=mxgraph.aws4.identity_and_access_management;" parent="Fg_R7rMF1QJfMFUxLV-t-10" vertex="1">
          <mxGeometry x="60" y="40" width="64" height="64" as="geometry" />
        </mxCell>
        <mxCell id="6dxpCICscCtcMZDKGbw2-3" value="IAM" style="text;html=1;align=center;verticalAlign=middle;resizable=0;points=[];autosize=1;strokeColor=none;fillColor=none;" parent="Fg_R7rMF1QJfMFUxLV-t-10" vertex="1">
          <mxGeometry x="72" y="115" width="40" height="30" as="geometry" />
        </mxCell>
        <mxCell id="Fg_R7rMF1QJfMFUxLV-t-26" value="" style="sketch=0;outlineConnect=0;fontColor=#232F3E;gradientColor=none;fillColor=#DD344C;strokeColor=none;dashed=0;verticalLabelPosition=bottom;verticalAlign=top;align=center;html=1;fontSize=12;fontStyle=0;aspect=fixed;pointerEvents=1;shape=mxgraph.aws4.permissions;" parent="Fg_R7rMF1QJfMFUxLV-t-10" vertex="1">
          <mxGeometry x="400" y="20" width="47.69" height="60" as="geometry" />
        </mxCell>
        <mxCell id="6dxpCICscCtcMZDKGbw2-5" value="&lt;font style=&quot;font-size: 12px;&quot;&gt;Customer Policy:&amp;nbsp;&lt;a name=&quot;_Hlk173162719&quot;&gt;&lt;span style=&quot;line-height: 107%;&quot; lang=&quot;ES&quot;&gt;EC2STSFullAccess&lt;/span&gt;&lt;/a&gt;&lt;/font&gt;" style="text;html=1;align=center;verticalAlign=middle;resizable=0;points=[];autosize=1;strokeColor=none;fillColor=none;" parent="Fg_R7rMF1QJfMFUxLV-t-10" vertex="1">
          <mxGeometry x="313.84" y="85" width="220" height="30" as="geometry" />
        </mxCell>
        <mxCell id="6dxpCICscCtcMZDKGbw2-6" style="edgeStyle=orthogonalEdgeStyle;rounded=0;orthogonalLoop=1;jettySize=auto;html=1;" parent="Fg_R7rMF1QJfMFUxLV-t-10" source="6dxpCICscCtcMZDKGbw2-2" target="Fg_R7rMF1QJfMFUxLV-t-26" edge="1">
          <mxGeometry relative="1" as="geometry">
            <Array as="points">
              <mxPoint x="190" y="70" />
              <mxPoint x="190" y="70" />
            </Array>
          </mxGeometry>
        </mxCell>
        <mxCell id="6dxpCICscCtcMZDKGbw2-10" value="" style="sketch=0;outlineConnect=0;fontColor=#232F3E;gradientColor=none;fillColor=#DD344C;strokeColor=none;dashed=0;verticalLabelPosition=bottom;verticalAlign=top;align=center;html=1;fontSize=12;fontStyle=0;aspect=fixed;pointerEvents=1;shape=mxgraph.aws4.role;" parent="Fg_R7rMF1QJfMFUxLV-t-10" vertex="1">
          <mxGeometry x="398.14" y="130" width="51.41" height="29" as="geometry" />
        </mxCell>
        <mxCell id="6dxpCICscCtcMZDKGbw2-12" value="Role_IdentityProvider" style="text;html=1;align=center;verticalAlign=middle;resizable=0;points=[];autosize=1;strokeColor=none;fillColor=none;" parent="Fg_R7rMF1QJfMFUxLV-t-10" vertex="1">
          <mxGeometry x="353.85" y="159" width="140" height="30" as="geometry" />
        </mxCell>
        <mxCell id="6dxpCICscCtcMZDKGbw2-16" value="" style="shape=image;html=2;verticalAlign=top;verticalLabelPosition=bottom;labelBackgroundColor=#ffffff;imageAspect=0;aspect=fixed;image=https://cdn0.iconfinder.com/data/icons/phosphor-fill-vol-3/256/number-circle-two-fill-128.png" parent="Fg_R7rMF1QJfMFUxLV-t-10" vertex="1">
          <mxGeometry x="460" y="36.5" width="27" height="27" as="geometry" />
        </mxCell>
        <mxCell id="6dxpCICscCtcMZDKGbw2-17" value="Create Policy" style="text;html=1;align=center;verticalAlign=middle;resizable=0;points=[];autosize=1;strokeColor=none;fillColor=none;" parent="Fg_R7rMF1QJfMFUxLV-t-10" vertex="1">
          <mxGeometry x="487" y="36.5" width="90" height="30" as="geometry" />
        </mxCell>
        <mxCell id="hSALlEVlb4BRuWAQIIw8-13" value="" style="sketch=0;outlineConnect=0;fontColor=#232F3E;gradientColor=none;fillColor=#DD344C;strokeColor=none;dashed=0;verticalLabelPosition=bottom;verticalAlign=top;align=center;html=1;fontSize=12;fontStyle=0;aspect=fixed;pointerEvents=1;shape=mxgraph.aws4.sts_alternate;" vertex="1" parent="Fg_R7rMF1QJfMFUxLV-t-10">
          <mxGeometry x="62" y="160" width="50.08" height="63" as="geometry" />
        </mxCell>
        <mxCell id="hSALlEVlb4BRuWAQIIw8-17" value="Profile&amp;nbsp;EC2FullAccess" style="text;html=1;align=center;verticalAlign=middle;resizable=0;points=[];autosize=1;strokeColor=none;fillColor=none;" vertex="1" parent="Fg_R7rMF1QJfMFUxLV-t-10">
          <mxGeometry x="124" y="176.5" width="140" height="30" as="geometry" />
        </mxCell>
        <mxCell id="Fg_R7rMF1QJfMFUxLV-t-21" value="" style="sketch=0;outlineConnect=0;fontColor=#232F3E;gradientColor=none;fillColor=#DD344C;strokeColor=none;dashed=0;verticalLabelPosition=bottom;verticalAlign=top;align=center;html=1;fontSize=12;fontStyle=0;aspect=fixed;pointerEvents=1;shape=mxgraph.aws4.organizations_organizational_unit;" parent="Fg_R7rMF1QJfMFUxLV-t-11" vertex="1">
          <mxGeometry x="100" y="586" width="45.4" height="39" as="geometry" />
        </mxCell>
        <mxCell id="6dxpCICscCtcMZDKGbw2-7" value="Organizational Unit" style="text;html=1;align=center;verticalAlign=middle;resizable=0;points=[];autosize=1;strokeColor=none;fillColor=none;" parent="Fg_R7rMF1QJfMFUxLV-t-11" vertex="1">
          <mxGeometry x="145.4" y="600" width="130" height="30" as="geometry" />
        </mxCell>
        <mxCell id="6dxpCICscCtcMZDKGbw2-9" value="&lt;b&gt;Switch Role&lt;/b&gt;" style="text;html=1;align=center;verticalAlign=middle;resizable=0;points=[];autosize=1;strokeColor=none;fillColor=none;" parent="Fg_R7rMF1QJfMFUxLV-t-11" vertex="1">
          <mxGeometry x="420" y="600" width="90" height="30" as="geometry" />
        </mxCell>
        <mxCell id="6dxpCICscCtcMZDKGbw2-15" value="" style="shape=image;html=1;verticalAlign=top;verticalLabelPosition=bottom;labelBackgroundColor=#ffffff;imageAspect=0;aspect=fixed;image=https://cdn0.iconfinder.com/data/icons/phosphor-fill-vol-3/256/number-circle-one-fill-128.png" parent="Fg_R7rMF1QJfMFUxLV-t-11" vertex="1">
          <mxGeometry x="450" y="570" width="30" height="30" as="geometry" />
        </mxCell>
        <mxCell id="6dxpCICscCtcMZDKGbw2-30" style="edgeStyle=orthogonalEdgeStyle;rounded=0;orthogonalLoop=1;jettySize=auto;html=1;" parent="Fg_R7rMF1QJfMFUxLV-t-11" source="6dxpCICscCtcMZDKGbw2-17" target="6dxpCICscCtcMZDKGbw2-22" edge="1">
          <mxGeometry relative="1" as="geometry">
            <Array as="points">
              <mxPoint x="910" y="712" />
              <mxPoint x="910" y="95" />
            </Array>
          </mxGeometry>
        </mxCell>
        <mxCell id="6dxpCICscCtcMZDKGbw2-32" value="&lt;b&gt;Switch Role&lt;/b&gt;" style="text;html=1;align=center;verticalAlign=middle;resizable=0;points=[];autosize=1;strokeColor=none;fillColor=none;" parent="Fg_R7rMF1QJfMFUxLV-t-11" vertex="1">
          <mxGeometry x="530" y="600" width="90" height="30" as="geometry" />
        </mxCell>
        <mxCell id="6dxpCICscCtcMZDKGbw2-21" value="" style="shape=image;html=3;verticalAlign=top;verticalLabelPosition=bottom;labelBackgroundColor=#ffffff;imageAspect=0;aspect=fixed;image=https://cdn0.iconfinder.com/data/icons/phosphor-fill-vol-3/256/number-circle-three-fill-128.png" parent="Fg_R7rMF1QJfMFUxLV-t-11" vertex="1">
          <mxGeometry x="560" y="570" width="30" height="30" as="geometry" />
        </mxCell>
        <mxCell id="6dxpCICscCtcMZDKGbw2-37" style="edgeStyle=orthogonalEdgeStyle;rounded=0;orthogonalLoop=1;jettySize=auto;html=1;exitX=0.5;exitY=1;exitDx=0;exitDy=0;" parent="Fg_R7rMF1QJfMFUxLV-t-11" source="Fg_R7rMF1QJfMFUxLV-t-3" target="Fg_R7rMF1QJfMFUxLV-t-3" edge="1">
          <mxGeometry relative="1" as="geometry" />
        </mxCell>
        <mxCell id="6dxpCICscCtcMZDKGbw2-70" style="edgeStyle=orthogonalEdgeStyle;rounded=0;orthogonalLoop=1;jettySize=auto;html=1;" parent="Fg_R7rMF1QJfMFUxLV-t-11" source="6dxpCICscCtcMZDKGbw2-68" target="6dxpCICscCtcMZDKGbw2-10" edge="1">
          <mxGeometry relative="1" as="geometry">
            <Array as="points">
              <mxPoint x="870" y="403" />
              <mxPoint x="870" y="805" />
            </Array>
          </mxGeometry>
        </mxCell>
        <mxCell id="6dxpCICscCtcMZDKGbw2-53" style="edgeStyle=orthogonalEdgeStyle;rounded=0;orthogonalLoop=1;jettySize=auto;html=1;" parent="1" source="6dxpCICscCtcMZDKGbw2-54" target="hSALlEVlb4BRuWAQIIw8-12" edge="1">
          <mxGeometry relative="1" as="geometry">
            <mxPoint x="182" y="702.63" as="targetPoint" />
          </mxGeometry>
        </mxCell>
        <mxCell id="6dxpCICscCtcMZDKGbw2-54" value="" style="sketch=0;outlineConnect=0;fontColor=#232F3E;gradientColor=none;fillColor=#232F3D;strokeColor=none;dashed=0;verticalLabelPosition=bottom;verticalAlign=top;align=center;html=1;fontSize=12;fontStyle=0;aspect=fixed;pointerEvents=1;shape=mxgraph.aws4.user;" parent="1" vertex="1">
          <mxGeometry x="91" y="678.62" width="48" height="48" as="geometry" />
        </mxCell>
        <mxCell id="6dxpCICscCtcMZDKGbw2-56" value="" style="sketch=0;outlineConnect=0;fontColor=#232F3E;gradientColor=none;fillColor=#DD344C;strokeColor=none;dashed=0;verticalLabelPosition=bottom;verticalAlign=top;align=center;html=1;fontSize=12;fontStyle=0;aspect=fixed;pointerEvents=1;shape=mxgraph.aws4.temporary_security_credential;" parent="1" vertex="1">
          <mxGeometry x="319.65999999999997" y="896.13" width="54.69" height="55.41" as="geometry" />
        </mxCell>
        <mxCell id="hSALlEVlb4BRuWAQIIw8-16" style="edgeStyle=orthogonalEdgeStyle;rounded=0;orthogonalLoop=1;jettySize=auto;html=1;" edge="1" parent="1" source="hSALlEVlb4BRuWAQIIw8-12" target="hSALlEVlb4BRuWAQIIw8-13">
          <mxGeometry relative="1" as="geometry">
            <Array as="points">
              <mxPoint x="690" y="703" />
              <mxPoint x="690" y="921" />
            </Array>
          </mxGeometry>
        </mxCell>
        <mxCell id="hSALlEVlb4BRuWAQIIw8-12" value="" style="outlineConnect=0;dashed=0;verticalLabelPosition=bottom;verticalAlign=top;align=center;html=1;shape=mxgraph.aws3.cli;fillColor=#444444;gradientColor=none;" vertex="1" parent="1">
          <mxGeometry x="305.65" y="670" width="60" height="65.25" as="geometry" />
        </mxCell>
        <mxCell id="hSALlEVlb4BRuWAQIIw8-21" style="edgeStyle=orthogonalEdgeStyle;rounded=0;orthogonalLoop=1;jettySize=auto;html=1;" edge="1" parent="1" source="hSALlEVlb4BRuWAQIIw8-15" target="6dxpCICscCtcMZDKGbw2-56">
          <mxGeometry relative="1" as="geometry" />
        </mxCell>
        <mxCell id="hSALlEVlb4BRuWAQIIw8-15" value="Configure access sso for cli" style="text;html=1;align=center;verticalAlign=middle;resizable=0;points=[];autosize=1;strokeColor=none;fillColor=none;" vertex="1" parent="1">
          <mxGeometry x="262" y="746.63" width="170" height="30" as="geometry" />
        </mxCell>
        <mxCell id="hSALlEVlb4BRuWAQIIw8-18" value="User: usr_maria_alta" style="text;html=1;align=center;verticalAlign=middle;resizable=0;points=[];autosize=1;strokeColor=none;fillColor=none;" vertex="1" parent="1">
          <mxGeometry x="50" y="726.63" width="130" height="30" as="geometry" />
        </mxCell>
        <mxCell id="hSALlEVlb4BRuWAQIIw8-23" value="Asumme Role&amp;nbsp;ReadSecretRole" style="text;html=1;align=center;verticalAlign=middle;resizable=0;points=[];autosize=1;strokeColor=none;fillColor=none;" vertex="1" parent="1">
          <mxGeometry x="252" y="968.63" width="190" height="30" as="geometry" />
        </mxCell>
        <mxCell id="hSALlEVlb4BRuWAQIIw8-24" style="edgeStyle=orthogonalEdgeStyle;rounded=0;orthogonalLoop=1;jettySize=auto;html=1;entryX=0;entryY=0.5;entryDx=0;entryDy=0;entryPerimeter=0;" edge="1" parent="1" source="6dxpCICscCtcMZDKGbw2-56" target="Fg_R7rMF1QJfMFUxLV-t-25">
          <mxGeometry relative="1" as="geometry">
            <Array as="points">
              <mxPoint x="610" y="940" />
              <mxPoint x="610" y="377" />
            </Array>
          </mxGeometry>
        </mxCell>
        <mxCell id="hSALlEVlb4BRuWAQIIw8-25" style="edgeStyle=orthogonalEdgeStyle;rounded=0;orthogonalLoop=1;jettySize=auto;html=1;" edge="1" parent="1" source="6dxpCICscCtcMZDKGbw2-43" target="6dxpCICscCtcMZDKGbw2-56">
          <mxGeometry relative="1" as="geometry">
            <Array as="points">
              <mxPoint x="1098" y="590" />
              <mxPoint x="450" y="590" />
              <mxPoint x="450" y="910" />
            </Array>
          </mxGeometry>
        </mxCell>
        <mxCell id="hSALlEVlb4BRuWAQIIw8-26" value="" style="shape=image;html=1;verticalAlign=top;verticalLabelPosition=bottom;labelBackgroundColor=#ffffff;imageAspect=0;aspect=fixed;image=https://cdn0.iconfinder.com/data/icons/phosphor-fill-vol-3/256/number-circle-one-fill-128.png;movable=1;resizable=1;rotatable=1;deletable=1;editable=1;locked=0;connectable=1;" vertex="1" parent="1">
          <mxGeometry x="202.0000000000001" y="746.63" width="30" height="30" as="geometry" />
        </mxCell>
        <mxCell id="hSALlEVlb4BRuWAQIIw8-27" value="" style="shape=image;html=2;verticalAlign=top;verticalLabelPosition=bottom;labelBackgroundColor=#ffffff;imageAspect=0;aspect=fixed;image=https://cdn0.iconfinder.com/data/icons/phosphor-fill-vol-3/256/number-circle-two-fill-128.png" vertex="1" parent="1">
          <mxGeometry x="221.5" y="746.13" width="30.5" height="30.5" as="geometry" />
        </mxCell>
        <mxCell id="hSALlEVlb4BRuWAQIIw8-28" value="" style="shape=image;html=1;verticalAlign=top;verticalLabelPosition=bottom;labelBackgroundColor=#ffffff;imageAspect=0;aspect=fixed;image=https://cdn0.iconfinder.com/data/icons/phosphor-fill-vol-3/256/number-circle-one-fill-128.png;movable=1;resizable=1;rotatable=1;deletable=1;editable=1;locked=0;connectable=1;" vertex="1" parent="1">
          <mxGeometry x="202.0000000000001" y="968.63" width="30" height="30" as="geometry" />
        </mxCell>
        <mxCell id="hSALlEVlb4BRuWAQIIw8-29" value="" style="shape=image;html=3;verticalAlign=top;verticalLabelPosition=bottom;labelBackgroundColor=#ffffff;imageAspect=0;aspect=fixed;image=https://cdn0.iconfinder.com/data/icons/phosphor-fill-vol-3/256/number-circle-three-fill-128.png" vertex="1" parent="1">
          <mxGeometry x="221.5" y="968.63" width="30" height="30" as="geometry" />
        </mxCell>
        <mxCell id="hSALlEVlb4BRuWAQIIw8-30" value="and GetSecretValue" style="text;html=1;align=center;verticalAlign=middle;resizable=0;points=[];autosize=1;strokeColor=none;fillColor=none;" vertex="1" parent="1">
          <mxGeometry x="275.65" y="998.63" width="130" height="30" as="geometry" />
        </mxCell>
        <mxCell id="hSALlEVlb4BRuWAQIIw8-34" style="edgeStyle=orthogonalEdgeStyle;rounded=0;orthogonalLoop=1;jettySize=auto;html=1;" edge="1" parent="1" source="hSALlEVlb4BRuWAQIIw8-35" target="hSALlEVlb4BRuWAQIIw8-36">
          <mxGeometry relative="1" as="geometry">
            <Array as="points" />
            <mxPoint x="260" y="250" as="targetPoint" />
          </mxGeometry>
        </mxCell>
        <mxCell id="hSALlEVlb4BRuWAQIIw8-35" value="" style="sketch=0;outlineConnect=0;fontColor=#232F3E;gradientColor=none;fillColor=#232F3D;strokeColor=none;dashed=0;verticalLabelPosition=bottom;verticalAlign=top;align=center;html=1;fontSize=12;fontStyle=0;aspect=fixed;pointerEvents=1;shape=mxgraph.aws4.user;" vertex="1" parent="1">
          <mxGeometry x="100" y="216.87" width="60" height="60" as="geometry" />
        </mxCell>
        <mxCell id="hSALlEVlb4BRuWAQIIw8-38" style="edgeStyle=orthogonalEdgeStyle;rounded=0;orthogonalLoop=1;jettySize=auto;html=1;" edge="1" parent="1" source="hSALlEVlb4BRuWAQIIw8-36" target="Fg_R7rMF1QJfMFUxLV-t-3">
          <mxGeometry relative="1" as="geometry">
            <Array as="points">
              <mxPoint x="670" y="247" />
              <mxPoint x="670" y="247" />
            </Array>
          </mxGeometry>
        </mxCell>
        <mxCell id="hSALlEVlb4BRuWAQIIw8-36" value="" style="sketch=0;pointerEvents=1;shadow=0;dashed=0;html=1;strokeColor=none;fillColor=#434445;aspect=fixed;labelPosition=center;verticalLabelPosition=bottom;verticalAlign=top;align=center;outlineConnect=0;shape=mxgraph.vvd.web_browser;" vertex="1" parent="1">
          <mxGeometry x="300.45" y="221.87" width="70.4" height="50" as="geometry" />
        </mxCell>
        <mxCell id="hSALlEVlb4BRuWAQIIw8-37" value="Login to AWS Console" style="text;html=1;align=center;verticalAlign=middle;resizable=0;points=[];autosize=1;strokeColor=none;fillColor=none;" vertex="1" parent="1">
          <mxGeometry x="265.6500000000001" y="295" width="140" height="30" as="geometry" />
        </mxCell>
        <mxCell id="hSALlEVlb4BRuWAQIIw8-39" value="User root" style="text;html=1;align=center;verticalAlign=middle;resizable=0;points=[];autosize=1;strokeColor=none;fillColor=none;" vertex="1" parent="1">
          <mxGeometry x="95" y="276.87" width="70" height="30" as="geometry" />
        </mxCell>
        <mxCell id="hSALlEVlb4BRuWAQIIw8-40" value="" style="shape=image;html=0;verticalAlign=top;verticalLabelPosition=bottom;labelBackgroundColor=#ffffff;imageAspect=0;aspect=fixed;image=https://cdn0.iconfinder.com/data/icons/phosphor-fill-vol-3/256/number-circle-zero-fill-128.png;movable=1;resizable=1;rotatable=1;deletable=1;editable=1;locked=0;connectable=1;" vertex="1" parent="1">
          <mxGeometry x="239.9999999999999" y="295" width="30" height="30" as="geometry" />
        </mxCell>
      </root>
    </mxGraphModel>
  </diagram>
  <diagram id="2Vh2YOlYZnbfqTPfqL_s" name="Arquitectura2">
    <mxGraphModel dx="1477" dy="600" grid="1" gridSize="10" guides="1" tooltips="1" connect="1" arrows="1" fold="1" page="1" pageScale="1" pageWidth="850" pageHeight="1100" math="0" shadow="0">
      <root>
        <mxCell id="0" />
        <mxCell id="1" parent="0" />
        <mxCell id="yZ8rP9Yn1Bm4eJbhrpTz-2" value="AWS Cloud" style="points=[[0,0],[0.25,0],[0.5,0],[0.75,0],[1,0],[1,0.25],[1,0.5],[1,0.75],[1,1],[0.75,1],[0.5,1],[0.25,1],[0,1],[0,0.75],[0,0.5],[0,0.25]];outlineConnect=0;gradientColor=none;html=1;whiteSpace=wrap;fontSize=12;fontStyle=0;shape=mxgraph.aws4.group;grIcon=mxgraph.aws4.group_aws_cloud_alt;strokeColor=#232F3E;fillColor=none;verticalAlign=top;align=left;spacingLeft=30;fontColor=#232F3E;dashed=0;labelBackgroundColor=#ffffff;container=1;pointerEvents=0;collapsible=0;recursiveResize=0;" parent="1" vertex="1">
          <mxGeometry x="390" y="200" width="400" height="410" as="geometry" />
        </mxCell>
        <mxCell id="wKCfn2ABTx_j3PVLJ128-3" value="" style="sketch=0;points=[[0,0,0],[0.25,0,0],[0.5,0,0],[0.75,0,0],[1,0,0],[0,1,0],[0.25,1,0],[0.5,1,0],[0.75,1,0],[1,1,0],[0,0.25,0],[0,0.5,0],[0,0.75,0],[1,0.25,0],[1,0.5,0],[1,0.75,0]];outlineConnect=0;fontColor=#232F3E;fillColor=#DD344C;strokeColor=#ffffff;dashed=0;verticalLabelPosition=bottom;verticalAlign=top;align=center;html=1;fontSize=12;fontStyle=0;aspect=fixed;shape=mxgraph.aws4.resourceIcon;resIcon=mxgraph.aws4.cognito;" vertex="1" parent="yZ8rP9Yn1Bm4eJbhrpTz-2">
          <mxGeometry x="60" y="40" width="60" height="60" as="geometry" />
        </mxCell>
        <mxCell id="i2z6K0i8oZSpH8c5kgpU-7" value="" style="sketch=0;points=[[0,0,0],[0.25,0,0],[0.5,0,0],[0.75,0,0],[1,0,0],[0,1,0],[0.25,1,0],[0.5,1,0],[0.75,1,0],[1,1,0],[0,0.25,0],[0,0.5,0],[0,0.75,0],[1,0.25,0],[1,0.5,0],[1,0.75,0]];outlineConnect=0;fontColor=#232F3E;fillColor=#7AA116;strokeColor=#ffffff;dashed=0;verticalLabelPosition=bottom;verticalAlign=top;align=center;html=1;fontSize=12;fontStyle=0;aspect=fixed;shape=mxgraph.aws4.resourceIcon;resIcon=mxgraph.aws4.s3;" vertex="1" parent="yZ8rP9Yn1Bm4eJbhrpTz-2">
          <mxGeometry x="60" y="280" width="60" height="60" as="geometry" />
        </mxCell>
        <mxCell id="UF-P1e3Itm71o_5vUOaU-1" value="" style="sketch=0;points=[[0,0,0],[0.25,0,0],[0.5,0,0],[0.75,0,0],[1,0,0],[0,1,0],[0.25,1,0],[0.5,1,0],[0.75,1,0],[1,1,0],[0,0.25,0],[0,0.5,0],[0,0.75,0],[1,0.25,0],[1,0.5,0],[1,0.75,0]];outlineConnect=0;fontColor=#232F3E;fillColor=#8C4FFF;strokeColor=#ffffff;dashed=0;verticalLabelPosition=bottom;verticalAlign=top;align=center;html=1;fontSize=12;fontStyle=0;aspect=fixed;shape=mxgraph.aws4.resourceIcon;resIcon=mxgraph.aws4.cloudfront;" vertex="1" parent="yZ8rP9Yn1Bm4eJbhrpTz-2">
          <mxGeometry x="60" y="160" width="58" height="58" as="geometry" />
        </mxCell>
        <mxCell id="UvRGEI0E9OlYNMSw25MT-1" value="" style="shape=image;html=1;verticalAlign=top;verticalLabelPosition=bottom;labelBackgroundColor=#ffffff;imageAspect=0;aspect=fixed;image=https://cdn0.iconfinder.com/data/icons/phosphor-fill-vol-3/256/number-circle-one-fill-128.png" vertex="1" parent="yZ8rP9Yn1Bm4eJbhrpTz-2">
          <mxGeometry x="148.5" y="295" width="30" height="30" as="geometry" />
        </mxCell>
        <mxCell id="UvRGEI0E9OlYNMSw25MT-2" value="Create Bucket with&amp;nbsp;&lt;div&gt;web static files&lt;/div&gt;" style="text;html=1;align=center;verticalAlign=middle;resizable=0;points=[];autosize=1;strokeColor=none;fillColor=none;" vertex="1" parent="yZ8rP9Yn1Bm4eJbhrpTz-2">
          <mxGeometry x="177" y="295" width="130" height="40" as="geometry" />
        </mxCell>
        <mxCell id="BFsjYTjpwWdo8dOgr7oV-1" value="" style="shape=image;html=2;verticalAlign=top;verticalLabelPosition=bottom;labelBackgroundColor=#ffffff;imageAspect=0;aspect=fixed;image=https://cdn0.iconfinder.com/data/icons/phosphor-fill-vol-3/256/number-circle-two-fill-128.png" vertex="1" parent="yZ8rP9Yn1Bm4eJbhrpTz-2">
          <mxGeometry x="150" y="175.5" width="27" height="27" as="geometry" />
        </mxCell>
        <mxCell id="BFsjYTjpwWdo8dOgr7oV-2" value="Create Cloudfront distribution&amp;nbsp;&lt;div&gt;with Origin from S3&lt;/div&gt;" style="text;html=1;align=center;verticalAlign=middle;resizable=0;points=[];autosize=1;strokeColor=none;fillColor=none;" vertex="1" parent="yZ8rP9Yn1Bm4eJbhrpTz-2">
          <mxGeometry x="180" y="175.5" width="180" height="40" as="geometry" />
        </mxCell>
        <mxCell id="BFsjYTjpwWdo8dOgr7oV-3" style="edgeStyle=orthogonalEdgeStyle;rounded=0;orthogonalLoop=1;jettySize=auto;html=1;exitX=0.5;exitY=1;exitDx=0;exitDy=0;exitPerimeter=0;entryX=0.5;entryY=0;entryDx=0;entryDy=0;entryPerimeter=0;" edge="1" parent="yZ8rP9Yn1Bm4eJbhrpTz-2" source="UF-P1e3Itm71o_5vUOaU-1" target="i2z6K0i8oZSpH8c5kgpU-7">
          <mxGeometry relative="1" as="geometry" />
        </mxCell>
        <mxCell id="lFjpASSJj2RXE3wskRck-1" value="" style="shape=image;html=3;verticalAlign=top;verticalLabelPosition=bottom;labelBackgroundColor=#ffffff;imageAspect=0;aspect=fixed;image=https://cdn0.iconfinder.com/data/icons/phosphor-fill-vol-3/256/number-circle-three-fill-128.png" vertex="1" parent="yZ8rP9Yn1Bm4eJbhrpTz-2">
          <mxGeometry x="100" y="230" width="30" height="30" as="geometry" />
        </mxCell>
        <mxCell id="lFjpASSJj2RXE3wskRck-3" value="Copy Paste Resource Policy&lt;div&gt;&amp;nbsp;to access only Cloudfront&lt;/div&gt;" style="text;html=1;align=center;verticalAlign=middle;resizable=0;points=[];autosize=1;strokeColor=none;fillColor=none;" vertex="1" parent="yZ8rP9Yn1Bm4eJbhrpTz-2">
          <mxGeometry x="120" y="230" width="180" height="40" as="geometry" />
        </mxCell>
        <mxCell id="1_ruXVNT3hCJs3wTiZ4j-1" value="" style="shape=image;html=4;verticalAlign=top;verticalLabelPosition=bottom;labelBackgroundColor=#ffffff;imageAspect=0;aspect=fixed;image=https://cdn0.iconfinder.com/data/icons/phosphor-fill-vol-3/256/number-circle-four-fill-128.png" vertex="1" parent="yZ8rP9Yn1Bm4eJbhrpTz-2">
          <mxGeometry x="148.4999999999999" y="40" width="30" height="30" as="geometry" />
        </mxCell>
        <mxCell id="1_ruXVNT3hCJs3wTiZ4j-5" value="Create User Pool" style="text;html=1;align=center;verticalAlign=middle;resizable=0;points=[];autosize=1;strokeColor=none;fillColor=none;" vertex="1" parent="yZ8rP9Yn1Bm4eJbhrpTz-2">
          <mxGeometry x="177" y="40" width="120" height="30" as="geometry" />
        </mxCell>
        <mxCell id="s17Lu8w59e8HcjpqjdPl-1" value="" style="shape=image;html=5;verticalAlign=top;verticalLabelPosition=bottom;labelBackgroundColor=#ffffff;imageAspect=0;aspect=fixed;image=https://cdn0.iconfinder.com/data/icons/phosphor-fill-vol-3/256/number-circle-five-fill-128.png" vertex="1" parent="yZ8rP9Yn1Bm4eJbhrpTz-2">
          <mxGeometry x="149.9999999999999" y="70" width="30" height="30" as="geometry" />
        </mxCell>
        <mxCell id="s17Lu8w59e8HcjpqjdPl-2" value="Create Identity Pool" style="text;html=1;align=center;verticalAlign=middle;resizable=0;points=[];autosize=1;strokeColor=none;fillColor=none;" vertex="1" parent="yZ8rP9Yn1Bm4eJbhrpTz-2">
          <mxGeometry x="177" y="70" width="130" height="30" as="geometry" />
        </mxCell>
        <mxCell id="wKCfn2ABTx_j3PVLJ128-2" value="" style="sketch=0;outlineConnect=0;fontColor=#232F3E;gradientColor=none;fillColor=#232F3D;strokeColor=none;dashed=0;verticalLabelPosition=bottom;verticalAlign=top;align=center;html=1;fontSize=12;fontStyle=0;aspect=fixed;pointerEvents=1;shape=mxgraph.aws4.users;" vertex="1" parent="1">
          <mxGeometry x="80" y="450" width="60" height="60" as="geometry" />
        </mxCell>
        <mxCell id="wKCfn2ABTx_j3PVLJ128-6" value="Users" style="text;html=1;align=center;verticalAlign=middle;resizable=0;points=[];autosize=1;strokeColor=none;fillColor=none;" vertex="1" parent="1">
          <mxGeometry x="85" y="520" width="50" height="30" as="geometry" />
        </mxCell>
        <mxCell id="i2z6K0i8oZSpH8c5kgpU-1" style="edgeStyle=orthogonalEdgeStyle;rounded=0;orthogonalLoop=1;jettySize=auto;html=1;" edge="1" parent="1" source="i2z6K0i8oZSpH8c5kgpU-2" target="i2z6K0i8oZSpH8c5kgpU-3">
          <mxGeometry relative="1" as="geometry">
            <Array as="points" />
            <mxPoint x="145" y="303.13" as="targetPoint" />
          </mxGeometry>
        </mxCell>
        <mxCell id="i2z6K0i8oZSpH8c5kgpU-2" value="" style="sketch=0;outlineConnect=0;fontColor=#232F3E;gradientColor=none;fillColor=#232F3D;strokeColor=none;dashed=0;verticalLabelPosition=bottom;verticalAlign=top;align=center;html=1;fontSize=12;fontStyle=0;aspect=fixed;pointerEvents=1;shape=mxgraph.aws4.user;" vertex="1" parent="1">
          <mxGeometry x="80" y="282.5" width="50" height="50" as="geometry" />
        </mxCell>
        <mxCell id="i2z6K0i8oZSpH8c5kgpU-3" value="" style="sketch=0;pointerEvents=1;shadow=0;dashed=0;html=1;strokeColor=none;fillColor=#434445;aspect=fixed;labelPosition=center;verticalLabelPosition=bottom;verticalAlign=top;align=center;outlineConnect=0;shape=mxgraph.vvd.web_browser;" vertex="1" parent="1">
          <mxGeometry x="220" y="285" width="63.36" height="45" as="geometry" />
        </mxCell>
        <mxCell id="i2z6K0i8oZSpH8c5kgpU-4" value="Login to AWS Console" style="text;html=1;align=center;verticalAlign=middle;resizable=0;points=[];autosize=1;strokeColor=none;fillColor=none;" vertex="1" parent="1">
          <mxGeometry x="200.00000000000009" y="332.5" width="140" height="30" as="geometry" />
        </mxCell>
        <mxCell id="i2z6K0i8oZSpH8c5kgpU-5" value="User root" style="text;html=1;align=center;verticalAlign=middle;resizable=0;points=[];autosize=1;strokeColor=none;fillColor=none;" vertex="1" parent="1">
          <mxGeometry x="70" y="332.5" width="70" height="30" as="geometry" />
        </mxCell>
        <mxCell id="i2z6K0i8oZSpH8c5kgpU-6" value="" style="shape=image;html=0;verticalAlign=top;verticalLabelPosition=bottom;labelBackgroundColor=#ffffff;imageAspect=0;aspect=fixed;image=https://cdn0.iconfinder.com/data/icons/phosphor-fill-vol-3/256/number-circle-zero-fill-128.png;movable=1;resizable=1;rotatable=1;deletable=1;editable=1;locked=0;connectable=1;" vertex="1" parent="1">
          <mxGeometry x="179.9999999999999" y="330" width="30" height="30" as="geometry" />
        </mxCell>
        <mxCell id="1_ruXVNT3hCJs3wTiZ4j-2" style="edgeStyle=orthogonalEdgeStyle;rounded=0;orthogonalLoop=1;jettySize=auto;html=1;entryX=0;entryY=0.75;entryDx=0;entryDy=0;entryPerimeter=0;" edge="1" parent="1" source="i2z6K0i8oZSpH8c5kgpU-3" target="i2z6K0i8oZSpH8c5kgpU-7">
          <mxGeometry relative="1" as="geometry" />
        </mxCell>
        <mxCell id="1_ruXVNT3hCJs3wTiZ4j-3" style="edgeStyle=orthogonalEdgeStyle;rounded=0;orthogonalLoop=1;jettySize=auto;html=1;entryX=0;entryY=0.75;entryDx=0;entryDy=0;entryPerimeter=0;" edge="1" parent="1" source="i2z6K0i8oZSpH8c5kgpU-3" target="UF-P1e3Itm71o_5vUOaU-1">
          <mxGeometry relative="1" as="geometry" />
        </mxCell>
        <mxCell id="1_ruXVNT3hCJs3wTiZ4j-4" style="edgeStyle=orthogonalEdgeStyle;rounded=0;orthogonalLoop=1;jettySize=auto;html=1;entryX=0;entryY=0.5;entryDx=0;entryDy=0;entryPerimeter=0;" edge="1" parent="1" source="i2z6K0i8oZSpH8c5kgpU-3" target="wKCfn2ABTx_j3PVLJ128-3">
          <mxGeometry relative="1" as="geometry" />
        </mxCell>
        <mxCell id="s17Lu8w59e8HcjpqjdPl-4" style="edgeStyle=orthogonalEdgeStyle;rounded=0;orthogonalLoop=1;jettySize=auto;html=1;entryX=0;entryY=0.75;entryDx=0;entryDy=0;entryPerimeter=0;" edge="1" parent="1" source="wKCfn2ABTx_j3PVLJ128-2" target="wKCfn2ABTx_j3PVLJ128-3">
          <mxGeometry relative="1" as="geometry">
            <Array as="points">
              <mxPoint x="295" y="480" />
              <mxPoint x="295" y="360" />
              <mxPoint x="410" y="360" />
              <mxPoint x="410" y="285" />
            </Array>
          </mxGeometry>
        </mxCell>
        <mxCell id="8cqDjy-EC2M8C8GlqRh8-1" value="" style="shape=image;html=6;verticalAlign=top;verticalLabelPosition=bottom;labelBackgroundColor=#ffffff;imageAspect=0;aspect=fixed;image=https://cdn0.iconfinder.com/data/icons/phosphor-fill-vol-3/256/number-circle-six-fill-128.png" vertex="1" parent="1">
          <mxGeometry x="150.00000000000023" y="490" width="30" height="30" as="geometry" />
        </mxCell>
        <mxCell id="8cqDjy-EC2M8C8GlqRh8-2" value="Register and Confirm User&amp;nbsp;&lt;div&gt;by UI Cognito&lt;/div&gt;" style="text;html=1;align=center;verticalAlign=middle;resizable=0;points=[];autosize=1;strokeColor=none;fillColor=none;" vertex="1" parent="1">
          <mxGeometry x="170" y="490" width="170" height="40" as="geometry" />
        </mxCell>
        <mxCell id="CcPAj_6De5JApddElyCd-1" value="" style="shape=image;html=7;verticalAlign=top;verticalLabelPosition=bottom;labelBackgroundColor=#ffffff;imageAspect=0;aspect=fixed;image=https://cdn0.iconfinder.com/data/icons/phosphor-fill-vol-3/256/number-circle-seven-fill-128.png" vertex="1" parent="1">
          <mxGeometry x="150.00000000000023" y="540" width="30" height="30" as="geometry" />
        </mxCell>
        <mxCell id="CcPAj_6De5JApddElyCd-3" value="Login and Access url Cloudfront" style="text;html=1;align=center;verticalAlign=middle;resizable=0;points=[];autosize=1;strokeColor=none;fillColor=none;" vertex="1" parent="1">
          <mxGeometry x="170" y="540" width="190" height="30" as="geometry" />
        </mxCell>
        <mxCell id="CcPAj_6De5JApddElyCd-4" style="edgeStyle=orthogonalEdgeStyle;rounded=0;orthogonalLoop=1;jettySize=auto;html=1;entryX=0;entryY=0.5;entryDx=0;entryDy=0;entryPerimeter=0;" edge="1" parent="1" source="wKCfn2ABTx_j3PVLJ128-2" target="UF-P1e3Itm71o_5vUOaU-1">
          <mxGeometry relative="1" as="geometry" />
        </mxCell>
      </root>
    </mxGraphModel>
  </diagram>
</mxfile>
